<?xml version="1.0" encoding="UTF-8"?>
<svg width="426px" height="307px" viewBox="0 0 426 307" version="1.1" xmlns="http://www.w3.org/2000/svg" xmlns:xlink="http://www.w3.org/1999/xlink">
    <!-- Generator: Sketch 53.2 (72643) - https://sketchapp.com -->
    <title>Logo</title>
    <desc>Created with Sketch.</desc>
    <g id="Consegne" stroke="none" stroke-width="1" fill="none" fill-rule="evenodd">
        <g id="Artboard-Copy" transform="translate(-571.000000, -378.000000)" fill="#B12009" fill-rule="nonzero">
            <g id="Logo+Write" transform="translate(571.000000, 378.000000)">
                <g id="Logo" transform="translate(0.386343, 0.188221)">
                    <path d="M208.953657,6.57177935 C196.613657,-0.378220654 179.783657,-1.91822065 158.613657,2.44177935 C129.613657,8.34177935 104.613657,19.0517793 83.8236573,34.5617793 C64.1251608,49.1405666 47.2464418,67.1849711 34.0136573,87.8117793 C20.8836573,108.011779 11.6736573,127.571779 6.39365731,146.731779 C1.11365731,165.891779 -0.936342689,182.501779 0.393657311,196.031779 C2.59365731,215.431779 10.4736573,234.521779 23.4936573,252.841779 C36.7336573,270.891779 58.2936573,285.111779 88.1336573,295.271779 C117.973657,305.431779 158.613657,308.811779 209.613657,304.891779 C252.413657,300.581779 289.013657,291.441779 319.393657,277.201779 C325.313657,274.381779 331.003657,271.561779 336.393657,268.551779 C369.523657,249.551779 393.743657,228.491779 408.533657,205.141779 C423.323657,181.791779 428.213657,161.141779 423.423657,143.281779 C421.033657,131.841779 412.723657,120.741779 398.933657,109.721779 C384.933657,98.7217793 362.873657,91.9717793 332.543657,89.3017793 C321.87588,88.6119402 311.168143,88.8595566 300.543657,90.0417793 C274.673657,92.1417793 244.013657,98.4517793 208.543657,108.731779 C192.670324,114.065113 182.220324,121.328446 177.193657,130.521779 C172.403657,139.701779 171.813657,148.701779 175.463657,157.771779 C178.675607,166.556528 184.868858,173.935345 192.963657,178.621779 C201.183657,183.751779 210.253657,185.081779 220.423657,182.321779 C228.703657,180.741779 240.353657,178.081779 255.683657,174.801779 C270.706087,171.618765 285.963549,169.668941 301.303657,168.971779 C303.71998,168.919499 306.137309,169.006309 308.543657,169.231779 C320.763657,169.741779 331.733657,172.621779 340.963657,177.901779 C351.813657,184.511779 357.233657,196.391779 357.263657,214.031779 C354.443657,227.971779 346.210324,239.971779 332.563657,250.031779 C327.693657,253.511779 322.803657,256.731779 317.663657,259.981779 C307.686251,265.792656 297.195368,270.673226 286.323657,274.561779 C268.323657,280.561779 252.153657,285.451779 237.323657,288.681779 C222.733657,291.881779 212.943657,293.361779 207.753657,293.681779 C201.333657,294.061779 191.443657,294.571779 177.753657,294.681779 C164.353657,294.791779 150.003657,292.991779 134.483657,289.341779 C119.501337,285.875814 105.729027,278.438697 94.6136573,267.811779 C82.8736573,257.321779 75.3236573,241.681779 72.5136573,221.091779 C71.9936573,203.501779 76.6336573,187.871779 86.5136573,174.471779 C96.6516394,160.683631 109.183983,148.828711 123.513657,139.471779 C136.479328,130.688524 150.057395,122.845127 164.143657,116.001779 C176.463657,110.001779 184.993657,106.001779 189.493657,103.761779 C206.193657,96.8717793 218.143657,87.2217793 225.053657,74.3617793 C231.973657,61.7417793 233.933657,49.1117793 231.413657,36.4517793 C228.886991,23.5451127 221.430324,13.608446 209.043657,6.64177935" id="Path"></path>
                    <path d="M329.783657,215.051779 C329.293657,205.161779 325.993657,197.051779 319.663657,190.981779 C316.90251,188.160147 313.644702,185.871884 310.053657,184.231779 C305.319114,181.976141 300.08783,180.964301 294.853657,181.291779 C284.963657,181.791779 276.853657,185.341779 270.853657,191.911779 C264.259968,198.445885 260.74583,207.469262 261.183657,216.741779 C261.663657,226.621779 265.183657,234.741779 272.023657,240.741779 C278.593657,246.741779 286.863657,249.921779 296.553657,249.941779 C304.213657,249.421779 310.693657,247.281779 316.043657,243.511779 C317.653657,242.351779 319.043657,241.231779 320.633657,239.831779 C326.883333,233.131158 330.189427,224.206864 329.813657,215.051779" id="Path"></path>
                </g>
            </g>
        </g>
    </g>
</svg>