<svg id="Livello_1" data-name="Livello 1" xmlns="http://www.w3.org/2000/svg" viewBox="0 0 836.59 297.25"><defs><style>.cls-1{fill:#fff;}.cls-2{fill:#b12009;stroke:#979797;stroke-width:0.97px;}</style></defs><path class="cls-1" d="M578.4,261.4a13.06,13.06,0,0,1,7.4,1.8,7.06,7.06,0,0,1,3.1,6.2c0,6.1-5.2,8.6-9.5,8.7a4.48,4.48,0,0,1-1.2-.1l-2.6-.7v6.1c0,3.5.3,3.7,4,4v1.4H567v-1.4c3.3-.4,3.7-.6,3.7-4.1V267c0-3.6-.4-3.9-3.7-4.1v-1.4h11.4Zm-2.9,14.2a5.68,5.68,0,0,0,2.6.5c2.3,0,5.6-1.3,5.6-6.7,0-4.7-2.8-6.3-5.8-6.3-1,0-1.7.2-1.9.5s-.4.7-.4,1.6v10.4Z" transform="translate(-22.72 -3.26)"/><path class="cls-1" d="M614.6,281.8c-.2,1.1-1.4,5.7-1.8,6.9H591.6v-1.4c3.9-.3,4.1-.6,4.1-4.1V267c0-3.6-.5-3.9-3.5-4.1v-1.4h13.3c4.2,0,5.8,0,6.3-.1,0,.9.2,4.2.4,6.6l-1.5.2a12.12,12.12,0,0,0-1.6-3.6c-.7-1.1-1.4-1.3-3.8-1.3H602c-1.5,0-1.6.1-1.6,1.4v9h4.4c2.7,0,3-.6,3.6-3.6h1.5v9.1h-1.5c-.6-3.1-1-3.5-3.6-3.5h-4.3v7.7c0,2.9.4,3.5,2.8,3.6h3.4c2.4,0,3-.3,3.9-1.4a18.4,18.4,0,0,0,2.4-4.1Z" transform="translate(-22.72 -3.26)"/><path class="cls-1" d="M631.8,260.8a13.62,13.62,0,0,1,13.9,13.9c0,9-6.3,14.6-14.1,14.6a13.85,13.85,0,0,1-14.3-14.2A14,14,0,0,1,631.8,260.8Zm-.7,1.8c-4.5,0-8.1,4.1-8.1,11.7,0,7.4,3.4,13.4,9.2,13.4,4.5,0,7.9-3.8,7.9-11.7C640.1,267.4,636.2,262.6,631.1,262.6Z" transform="translate(-22.72 -3.26)"/><path class="cls-1" d="M660.8,261.4a13.06,13.06,0,0,1,7.4,1.8,7.06,7.06,0,0,1,3.1,6.2c0,6.1-5.2,8.6-9.5,8.7a4.48,4.48,0,0,1-1.2-.1l-2.6-.7v6.1c0,3.5.3,3.7,4,4v1.4H649.4v-1.4c3.3-.4,3.7-.6,3.7-4.1V267c0-3.6-.4-3.9-3.7-4.1v-1.4h11.4Zm-2.9,14.2a5.68,5.68,0,0,0,2.6.5c2.3,0,5.6-1.3,5.6-6.7,0-4.7-2.8-6.3-5.8-6.3-1,0-1.7.2-1.9.5s-.4.7-.4,1.6v10.4Z" transform="translate(-22.72 -3.26)"/><path class="cls-1" d="M696.2,281.5c-.3,1.6-1.5,6-1.9,7.2H674v-1.4c3.8-.3,4.1-.6,4.1-4.1V266.9c0-3.5-.4-3.8-3.7-4.1v-1.4h12.3v1.4c-3.3.3-3.8.6-3.8,4.1v16.6c0,2.4.2,3.3,2.5,3.3h2.7c2.3,0,2.9-.4,3.9-1.5a15,15,0,0,0,2.6-4.4Z" transform="translate(-22.72 -3.26)"/><path class="cls-1" d="M721.2,281.8c-.2,1.1-1.4,5.7-1.8,6.9H698.2v-1.4c3.9-.3,4.1-.6,4.1-4.1V267c0-3.6-.5-3.9-3.5-4.1v-1.4h13.3c4.2,0,5.8,0,6.3-.1,0,.9.2,4.2.4,6.6l-1.5.2a12.12,12.12,0,0,0-1.6-3.6c-.7-1.1-1.4-1.3-3.8-1.3h-3.3c-1.5,0-1.6.1-1.6,1.4v9h4.4c2.7,0,3-.6,3.6-3.6h1.5v9.1H715c-.6-3.1-1-3.5-3.6-3.5h-4.3v7.7c0,2.9.4,3.5,2.8,3.6h3.4c2.4,0,3-.3,3.9-1.4a18.4,18.4,0,0,0,2.4-4.1Z" transform="translate(-22.72 -3.26)"/><path class="cls-1" d="M752.4,268.2a13.41,13.41,0,0,0-1.6-3.6c-.8-1.1-1.4-1.4-3.6-1.4h-3.7c-1.3,0-1.5.1-1.5,1.4V274h4.8c2.7,0,3-.6,3.6-3.5h1.4v9.1h-1.5c-.5-2.9-1-3.6-3.6-3.6H742v7c0,3.8.3,4,4.1,4.3v1.4H733.4v-1.4c3.3-.3,3.7-.5,3.7-4.3V267c0-3.7-.4-4-3.7-4.3v-1.4h13.8c3.7,0,5.5,0,6.2-.1,0,1.1.2,4.4.4,6.7Z" transform="translate(-22.72 -3.26)"/><path class="cls-1" d="M757,288.7v-1.4c3.3-.3,3.7-.5,3.7-4.1V267c0-3.6-.4-3.8-3.7-4.1v-1.4h12.2v1.4c-3.3.3-3.7.6-3.7,4.1v16.3c0,3.5.4,3.7,3.7,4.1v1.4H757Z" transform="translate(-22.72 -3.26)"/><path class="cls-1" d="M798.5,289a7.08,7.08,0,0,1-1.4-.1c-4.4-.2-6-1.2-7.5-3.3s-3-4.8-4.4-7.2c-.7-1.2-1.3-1.5-3-1.5h-1.1v6.3c0,3.5.4,3.7,3.7,4.1v1.4H772.6v-1.4c3.3-.4,3.7-.6,3.7-4.1V266.8c0-3.4-.4-3.7-3.7-4.1v-1.4h11.5c3.5,0,5.6.4,7.2,1.5a6.35,6.35,0,0,1,2.8,5.6c0,3.7-2.4,5.8-5.3,7,.7,1.3,2.4,4,3.7,6a47.72,47.72,0,0,0,3.2,4.4,6.1,6.1,0,0,0,2.8,1.9Zm-15.8-13.7c2,0,3.4-.3,4.3-1.1a5.86,5.86,0,0,0,2.1-5c0-4.5-2.7-6.1-5.5-6.1a3.89,3.89,0,0,0-2.1.4c-.3.3-.4.7-.4,1.7v10.1Z" transform="translate(-22.72 -3.26)"/><path class="cls-1" d="M814.6,268.1c-.8-2.7-2-5.6-5.9-5.6a4,4,0,0,0-4.2,4.3c0,2.6,1.7,4,5.3,5.8,4.7,2.4,7.3,4.5,7.3,8.6,0,4.7-4,8.2-9.7,8.2a22.22,22.22,0,0,1-6.8-1.3c-.3-1.1-.9-4.8-1.2-6.9l1.5-.4c.8,2.7,3,6.9,7.2,6.9,2.8,0,4.4-1.8,4.4-4.5s-1.6-4.2-5.2-6.1c-4.4-2.4-7.1-4.4-7.1-8.6s3.3-7.6,9.3-7.6a24.52,24.52,0,0,1,5.8.8c.2,1.5.4,3.5.7,6.2Z" transform="translate(-22.72 -3.26)"/><path class="cls-1" d="M843.3,268.4a12.91,12.91,0,0,0-1.6-3.8c-.7-1-1.1-1.3-3.5-1.3h-3.3v20c0,3.4.4,3.8,4.2,4v1.4H825.9v-1.4c3.7-.3,4.1-.6,4.1-4v-20h-3.1c-2.3,0-3,.3-3.8,1.4a16.8,16.8,0,0,0-1.6,3.7H820c.3-2.8.6-5.9.7-8h1.1c.6,1,1.1,1,2.3,1h16.7a2.42,2.42,0,0,0,2.3-1h1.1c0,1.9.2,5.3.4,7.9Z" transform="translate(-22.72 -3.26)"/><path id="Path" class="cls-2" d="M225.29,10.09c-11.9-6.7-28.2-8.2-48.7-4-28,5.7-52.2,16.1-72.3,31.1a193.37,193.37,0,0,0-48.2,51.4c-12.7,19.6-21.6,38.5-26.7,57s-7.1,34.6-5.8,47.7c2.1,18.8,9.7,37.2,22.3,54.9q19.2,26.25,62.5,41c28.9,9.8,68.1,13.1,117.5,9.3,41.4-4.2,76.8-13,106.1-26.8,5.7-2.7,11.2-5.5,16.4-8.4,32-18.4,55.5-38.7,69.8-61.3s19-42.5,14.4-59.8c-2.3-11.1-10.3-21.8-23.7-32.4s-34.8-17.1-64.1-19.7a177.07,177.07,0,0,0-30.9.7c-25,2-54.7,8.1-89,18.1-15.3,5.2-25.5,12.2-30.3,21.1-4.6,8.9-5.2,17.6-1.7,26.3a39,39,0,0,0,16.9,20.2c7.9,5,16.7,6.2,26.6,3.6,8-1.5,19.3-4.1,34.1-7.3a262.09,262.09,0,0,1,44.1-5.6,41,41,0,0,1,7,.3c11.8.5,22.4,3.3,31.3,8.4,10.5,6.4,15.7,17.9,15.8,34.9-2.7,13.5-10.7,25.1-23.9,34.8-4.7,3.4-9.4,6.5-14.4,9.6a185.45,185.45,0,0,1-30.3,14.1c-17.4,5.8-33,10.5-47.4,13.7-14.1,3.1-23.6,4.5-28.6,4.8-6.2.4-15.8.9-29,1a173,173,0,0,1-41.8-5.2,82.51,82.51,0,0,1-38.5-20.8c-11.4-10.1-18.7-25.3-21.4-45.2-.5-17,4-32.1,13.5-45.1a137.12,137.12,0,0,1,35.8-33.8A313.15,313.15,0,0,1,182,116c11.9-5.8,20.2-9.7,24.5-11.8,16.1-6.7,27.7-16,34.4-28.4,6.7-12.2,8.6-24.4,6.1-36.7-2.5-12.6-9.7-22.2-21.7-29" transform="translate(-22.72 -3.26)"/><path id="Path-2" data-name="Path" class="cls-1" d="M342.09,211.69c-.5-9.6-3.7-17.4-9.8-23.3a31.81,31.81,0,0,0-9.3-6.5,28.69,28.69,0,0,0-14.7-2.8c-9.6.5-17.4,3.9-23.2,10.3a31.19,31.19,0,0,0-9.3,24c.5,9.6,3.9,17.4,10.5,23.2a34.15,34.15,0,0,0,23.7,8.9c7.4-.5,13.7-2.6,18.8-6.2a36.5,36.5,0,0,0,4.4-3.6,33.13,33.13,0,0,0,8.9-24" transform="translate(-22.72 -3.26)"/><g id="Write"><path id="Shape" class="cls-1" d="M545,172.4a41.22,41.22,0,0,1,8.4,4.2c7.6,5.1,11.3,12.7,11.3,23,0,10.5-3.7,18.2-11.3,23.3-6.6,4.2-16.2,6.4-28.9,6.6-9.8-.2-14.7-2-14.7-5.6V168.3c16.3,0,27.9,1.4,35.2,4.1Zm99.8-25.8a19,19,0,0,1,10.8-3.7,6.86,6.86,0,0,1,3.7,1c1.4.8,2,2.7,2,5.4q0,23.85-33.1,35.5c-3.6,1.2-7.4,2.4-11.7,3.5a155.85,155.85,0,0,1,11.7-22.6,45.3,45.3,0,0,1,3-4.6C635.9,154.5,640.4,149.6,644.8,146.6ZM509.9,103.5c0-2.2,2.4-3.2,7.1-3,28.5,0,42.9,9.7,42.9,28.9a27.25,27.25,0,0,1-2.7,12.6,21.36,21.36,0,0,1-3.7,5.2,27.45,27.45,0,0,1-7.9,5.1c-4.6,1.9-14,2.7-28.4,2.7H510V103.5Zm177.2,44c2.5.5,3.7,1.7,3.7,3.4-.2,5.6-3.2,18.2-9.5,38-6.3,19.4-9.5,33.3-9.5,41.6,0,5.2,1.3,9.3,3.9,11.8,2.2,2,5.4,3,9.5,3,8.3,0,16.6-4.7,24.8-14a12.58,12.58,0,0,0,6.1,10.5c3.2,2,7.3,3,12.2,3,8.4,0,15.2-2.7,20.1-8.3,5.2-5.9,7.7-13.2,7.9-22V154.7c0-4.2.7-6.8,1.9-7.3a40.13,40.13,0,0,1,11.8-2.5v-9.1H720.7v9.1l10.6,1.7c1.9.9,2.7,2.9,2.7,6.1V228c0,2.9-.5,4.2-1.5,4.2l-.9-2.2c-2.5-7.1-6.1-10.6-11-10.6a8.2,8.2,0,0,0-2.2.2c.8-1.5,1.9-2.9,2.7-4.4l-5.8-4.6c-2.9,3.5-5.4,6.8-7.6,9.3-5.4,6.2-9.5,9.3-12,9.3-.3,0-.5-.2-.7-.5a1.45,1.45,0,0,1-.2-.7c0-1.5,1.7-7.9,4.9-19.6l19.8-73.5-2.7-2.2c-18.8,3.9-31.8,5.9-39.4,6.1a7.89,7.89,0,0,0-1.5-1.2,23.43,23.43,0,0,0-14.9-4.9,60.75,60.75,0,0,0-32.4,9.3,109.3,109.3,0,0,0-13.4,10.1c-1.9,1.7-3.7,3.6-5.6,5.6a96.24,96.24,0,0,0-17.1,25.8C587.8,173,578,165.6,563,161c-1.9.5-1.9-.5,0,0,11.5-3.5,18.9-10,22.5-19.1a36.45,36.45,0,0,0,2.2-13.5c0-14.7-6.6-25.5-19.8-32.6-10-5.6-22.8-8.3-38.3-8.3H459.9v8.6c14.7.8,21.9,5.6,21.9,14.2V219c0,6.6-1.7,10.6-5.2,12.5-2.5,1.7-8.1,2.4-16.7,1.9v9.1h81.4a100,100,0,0,0,12.2-.8,58.2,58.2,0,0,0,24.8-9.1,40.8,40.8,0,0,0,10.3-10,30.73,30.73,0,0,0,26.9,22.1c1.5.2,3.2.2,4.9.3a68.37,68.37,0,0,0,7.9-.5c16.7-2.2,31.4-11.5,43.9-27.5l-4.9-5.6c-13.7,12.2-25.3,18.2-34.8,18.2a29.54,29.54,0,0,1-4.2-.2c-5.9-.7-10.3-2.9-12.8-6.8-2.2-3.2-3.2-7.3-3-12.2a53.28,53.28,0,0,1,1.9-12.5,3.5,3.5,0,0,1,1.2-.3c4.6-.9,8.8-1.7,12.8-2.5,36.1-8.4,54.2-23.3,54.2-44.4a19.53,19.53,0,0,0-.3-3.4Z" transform="translate(-22.72 -3.26)"/><path id="Shape-2" data-name="Shape" class="cls-1" d="M832.5,142.9c3.9,0,5.8,2.2,5.8,6.4q0,27.6-44.8,39a158.79,158.79,0,0,1,14.7-27.2c8.4-12.2,16.5-18.2,24.3-18.2Zm5.6-10.2a40.15,40.15,0,0,0-4.9.2,64.42,64.42,0,0,0-27.6,9.1,83.61,83.61,0,0,0-18.9,15.7A103.28,103.28,0,0,0,775,173.2q-11.1,18.3-11.1,37.5c0,10.3,3,18.6,9.1,24.8s14.2,9.3,24.2,9.5c20.1,0,37.3-9.3,51.9-28l-4.9-5.6c-13.7,12.2-25.3,18.2-34.8,18.2-13.5,0-20.3-6.4-20.1-19.1a53.14,53.14,0,0,1,1.8-12.5c45.4-7.8,68.2-23.5,68.2-47.3a16.94,16.94,0,0,0-2.2-8.8,17.58,17.58,0,0,0-4.2-4.4,23.65,23.65,0,0,0-14.8-4.8Z" transform="translate(-22.72 -3.26)"/><circle id="Oval" class="cls-1" cx="706.49" cy="112.55" r="15.2" transform="translate(311.22 720.04) rotate(-67.67)"/></g></svg>